<?xml version="1.0" standalone="no"?>
<!DOCTYPE svg PUBLIC "-//W3C//DTD SVG 20010904//EN"
 "http://www.w3.org/TR/2001/REC-SVG-20010904/DTD/svg10.dtd">
<svg version="1.0" xmlns="http://www.w3.org/2000/svg"
 width="139.000000pt" height="123.000000pt" viewBox="0 0 139.000000 123.000000"
 preserveAspectRatio="xMidYMid meet">

<g transform="translate(0.000000,123.000000) scale(0.100000,-0.100000)"
fill="#000000" stroke="none">
<path d="M946 1069 c-36 -28 -66 -56 -66 -63 0 -6 34 -46 76 -89 l76 -77 53
45 53 46 7 -113 c4 -62 5 -127 3 -144 l-3 -31 -127 46 c-70 25 -128 49 -128
53 0 3 21 18 46 33 l46 27 -38 41 c-111 118 -209 217 -215 217 -17 0 -129
-103 -129 -118 0 -9 44 -60 97 -114 53 -54 95 -99 92 -101 -2 -2 -61 -51 -130
-109 l-126 -106 -104 104 c-57 57 -107 104 -111 104 -14 0 -128 -101 -128
-114 0 -8 7 -19 15 -26 10 -8 15 -30 15 -60 0 -47 -1 -49 -65 -100 -36 -29
-65 -56 -63 -60 2 -5 25 -32 53 -61 l49 -52 -37 -32 c-20 -18 -37 -35 -37 -39
0 -15 84 -106 97 -106 8 0 30 12 49 27 l35 26 59 -58 c39 -39 62 -55 72 -49
37 22 118 99 116 110 -5 20 -129 154 -143 154 -7 0 -35 -18 -62 -40 l-50 -39
-6 97 c-4 53 -7 118 -7 144 l0 47 68 -25 c37 -14 95 -35 130 -47 34 -11 62
-24 62 -28 0 -3 -18 -18 -40 -33 -22 -14 -40 -29 -40 -32 0 -11 233 -254 244
-254 12 0 129 97 134 111 2 5 -41 54 -95 110 -54 55 -99 104 -100 107 -1 4 56
55 126 114 l128 107 103 -105 c57 -57 108 -104 114 -104 6 0 34 18 61 41 83
68 80 63 56 97 -13 18 -21 45 -21 69 0 37 4 43 65 88 36 27 65 55 65 63 0 7
-22 37 -49 66 l-50 52 35 27 c18 15 34 33 34 40 0 7 -20 34 -43 61 -47 52 -66
55 -102 16 -26 -29 -38 -25 -85 28 -23 26 -48 50 -55 54 -8 5 -38 -12 -79 -43z"/>
</g>
</svg>
